<svg width="20" height="21" viewBox="0 0 20 21" fill="none" xmlns="http://www.w3.org/2000/svg">
<g id="chevron">
<path id="&#244;&#128;&#134;&#138;" d="M14.9998 10.5C14.9998 10.6094 14.9771 10.7131 14.9317 10.8111C14.8919 10.9032 14.8323 10.9896 14.7527 11.0703L8.00427 17.7667C7.85089 17.9222 7.66344 18 7.4419 18C7.29988 18 7.16923 17.9654 7.04994 17.8963C6.93065 17.8272 6.83692 17.7321 6.76875 17.6112C6.70059 17.496 6.6665 17.3635 6.6665 17.2137C6.6665 17.0006 6.74035 16.8134 6.88804 16.6521L13.0912 10.5L6.88804 4.34793C6.74035 4.18664 6.6665 3.99942 6.6665 3.78629C6.6665 3.63652 6.70059 3.50403 6.76875 3.38882C6.83692 3.26786 6.93065 3.17281 7.04994 3.10369C7.16923 3.03456 7.29988 3 7.4419 3C7.66344 3 7.85089 3.07488 8.00427 3.22465L14.7527 9.92972C14.8323 10.0104 14.8919 10.0997 14.9317 10.1976C14.9771 10.2897 14.9998 10.3906 14.9998 10.5Z" fill="#1333D4"/>
</g>
</svg>
