<svg width="36" height="40" viewBox="0 0 36 40" fill="none" xmlns="http://www.w3.org/2000/svg">
<g id="Layer 2">
<g id="Layer 1">
<path id="Vector" fill-rule="evenodd" clip-rule="evenodd" d="M1.01159 39.4348C1.51304 39.4725 2.02029 39.4928 2.53043 39.4928C6.79446 39.4916 10.9435 38.11 14.3569 35.5545C17.7704 32.999 20.2646 29.407 21.4667 25.3159H16.1101C15.168 27.6093 13.6608 29.627 11.7288 31.1809C9.79679 32.7348 7.50292 33.7744 5.06087 34.2029V22.7855H19.2783C18.9415 22.4555 18.6739 22.0615 18.4912 21.6268C18.3086 21.192 18.2145 20.7252 18.2145 20.2536C18.2145 19.7821 18.3086 19.3152 18.4912 18.8805C18.6739 18.4457 18.9415 18.0518 19.2783 17.7217H5.06087V5.28116C7.58102 5.72753 9.93869 6.83123 11.8956 8.48075C13.8525 10.1303 15.3393 12.2671 16.2058 14.6754V15.1913H21.2493V14.6841C19.0174 6.23188 11.6783 0 2.53043 0C2.02899 0 1.51304 0.0202899 1.01159 0.057971V0H0V39.4928H1.01159V39.4348Z" fill="#005FE3"/>
<path id="Vector_2" fill-rule="evenodd" clip-rule="evenodd" d="M35.925 20.2523C35.925 10.1218 28.4235 1.7595 18.7221 0.507324V5.66674C22.1312 6.29598 25.2121 8.09948 27.4298 10.764C29.6475 13.4285 30.8618 16.7856 30.8618 20.2523C30.8618 23.7189 29.6475 27.076 27.4298 29.7405C25.2121 32.405 22.1312 34.2085 18.7221 34.8378V40.0001C28.4235 38.7479 35.925 30.3856 35.925 20.2523ZM25.2989 20.2523C25.2983 19.5518 25.0901 18.8673 24.7006 18.2852C24.311 17.7031 23.7576 17.2496 23.1103 16.9819C22.4631 16.7143 21.751 16.6445 21.0641 16.7815C20.3772 16.9185 19.7463 17.2561 19.2513 17.7516C18.7562 18.2471 18.4191 18.8782 18.2827 19.5652C18.1463 20.2522 18.2166 20.9642 18.4847 21.6113C18.7529 22.2583 19.2069 22.8114 19.7893 23.2004C20.3717 23.5895 21.0564 23.7972 21.7569 23.7972C22.2223 23.7972 22.6831 23.7055 23.113 23.5273C23.5429 23.3491 23.9335 23.0879 24.2625 22.7587C24.5914 22.4295 24.8523 22.0387 25.0301 21.6086C25.2079 21.1785 25.2993 20.7176 25.2989 20.2523Z" fill="black"/>
</g>
</g>
</svg>
